<?xml version="1.0" encoding="utf-8"?>
<!-- Generator: Adobe Illustrator 18.1.1, SVG Export Plug-In . SVG Version: 6.00 Build 0)  -->
<!DOCTYPE svg PUBLIC "-//W3C//DTD SVG 1.1//EN" "http://www.w3.org/Graphics/SVG/1.1/DTD/svg11.dtd">
<svg version="1.1" id="Layer_1" xmlns:sketch="http://www.bohemiancoding.com/sketch/ns"
	 xmlns="http://www.w3.org/2000/svg" xmlns:xlink="http://www.w3.org/1999/xlink" x="0px" y="0px" viewBox="-379 265 201 32"
	 enable-background="new -379 265 201 32" xml:space="preserve">
<title>tamu</title>
<desc>Created with Sketch.</desc>
<g id="Page-1" sketch:type="MSPage">
	<g id="Content-Layout-Grid" transform="translate(-1120.000000, -45.000000)" sketch:type="MSArtboardGroup">
		<g id="tamu" transform="translate(1120.000000, 45.000000)" sketch:type="MSLayerGroup">
			<g id="Group" sketch:type="MSShapeGroup">
				<rect id="Rectangle-path" x="-331.8" y="265.1" fill="#FFFFFF" width="0.8" height="30.9"/>
				<path id="Shape" fill="#FFFFFF" d="M-345.1,275.5h-3.4h-0.2l-0.1,0.2l-2.5,5.1l-2.5-5.1l-0.1-0.2h-0.2h-3.3h-0.3v0.3v1.7v0.3
					h0.3h0.6v7.3h-0.6h-0.3v0.3v1.7v0.3h0.3h3.7h0.3v-0.3v-1.7v-0.3h-0.3h-0.6V280l2.8,5.7l0.3,0.6l0.3-0.6l2.8-5.7v5.2h-0.6h-0.3
					v0.3v1.7v0.3h0.3h3.7h0.3v-0.3v-1.7v-0.3h-0.3h-0.6v-7.3h0.6h0.3v-0.3v-1.7v-0.3H-345.1z"/>
				<path id="Shape_1_" fill="#FFFFFF" d="M-366.5,285.2h-1l-3.2-7.4h0.3h0.3v-0.3v-1.7v-0.3h-0.3h-4.5h-0.3v0.3v1.7v0.3h0.3h0.4
					l-3.2,7.4h-1h-0.3v0.3v1.7v0.3h0.3h4h0.3v-0.3v-1.7v-0.3h-0.3h-0.4l0.5-1.2h3.8l0.5,1.2h-0.4h-0.3v0.3v1.7v0.3h0.3h4h0.3v-0.3
					v-1.7v-0.3H-366.5L-366.5,285.2z M-371.7,281.6h-1.8l0.9-2.1L-371.7,281.6L-371.7,281.6z"/>
				<path id="Shape_2_" fill="#FFFFFF" d="M-349,266.3h-25.8h-0.4v0.4v6.9v0.4h0.4h4.5h0.4v-0.4V271h5.5v18.2h-2.6h-0.4v0.4v4.5v0.4
					h0.4h10.3h0.4V294v-4.5v-0.4h-0.4h-2.6V271h5.5v2.5v0.4h0.4h4.5h0.4v-0.4v-6.9v-0.4H-349z"/>
				<path id="Shape_3_" fill="#5D0025" d="M-358.6,291.3l1.1-1.1v3.1l-1.1-1V291.3z"/>
				<path id="Shape_4_" fill="#5D0025" d="M-360.4,290.3l-1.1,1.1v-22.5l1.1,1.1V290.3z"/>
				<path id="Shape_5_" fill="#5D0025" d="M-373,268.5l-1.1-1.1h23.9l-1.4,1.1H-373z"/>
				<path id="Shape_6_" fill="#5D0025" d="M-349.7,272.9l-1.1-1v-2.8l1.1-1.1V272.9z"/>
				<g id="Shape_7_" transform="translate(60.098039, 0.714286)">
					<path fill="#FFFFFF" d="M-362.5,270.2h-1.1c-0.1-1-0.3-1.8-0.7-2.2c-0.3-0.5-0.7-0.8-1.1-0.9c-0.4-0.1-0.8-0.2-1.4-0.2h-2.1v12
						c0,0.5,0,0.8,0.1,1.1c0.1,0.3,0.3,0.5,0.7,0.6c0.4,0.1,0.9,0.2,1.6,0.2v1.1h-8.2v-1.1c1,0,1.6-0.1,1.9-0.4
						c0.3-0.3,0.4-0.8,0.4-1.5v-12h-1.7c-0.7,0-1.2,0.1-1.7,0.2c-0.4,0.1-0.8,0.4-1.2,0.9c-0.3,0.5-0.5,1.2-0.6,2.2h-1.1v-4.6h16.1
						L-362.5,270.2L-362.5,270.2z"/>
					<path fill="#FFFFFF" d="M-346.6,276.6l-0.1,5.4h-14.5v-1.1c1,0,1.6-0.1,1.9-0.4c0.3-0.3,0.4-0.8,0.4-1.5v-10.3
						c0-0.5,0-0.8-0.1-1.1c-0.1-0.3-0.3-0.5-0.6-0.6c-0.3-0.1-0.9-0.2-1.6-0.2v-1.1h13.5l0.2,4.2h-1.1c-0.2-0.9-0.5-1.6-0.9-2
						c-0.3-0.4-0.7-0.7-1.1-0.7c-0.4-0.1-1-0.1-1.8-0.1h-3.1v5.8h1.7c0.6,0,1,0,1.3-0.1c0.3-0.1,0.5-0.3,0.6-0.6
						c0.1-0.3,0.2-0.7,0.2-1.3h1.2v5.4h-1.1c0-0.6-0.1-1-0.2-1.3c-0.1-0.3-0.3-0.5-0.6-0.6c-0.3-0.1-0.7-0.1-1.3-0.1h-1.7v3.8
						c0,0.6,0,1.1,0,1.4c0,0.3,0.1,0.5,0.3,0.7s0.4,0.3,0.7,0.4c0.3,0.1,0.8,0.1,1.4,0.1h1.3c0.6,0,1.1-0.1,1.6-0.2
						c0.5-0.1,1-0.5,1.5-1.1c0.5-0.6,0.8-1.5,1-2.7L-346.6,276.6L-346.6,276.6z"/>
					<path fill="#FFFFFF" d="M-326.4,281.9h-9.5v-1.1h0.8c0.4,0,0.8-0.1,1.1-0.2c0.3-0.1,0.5-0.4,0.5-0.7c0-0.2-0.2-0.6-0.6-1.1
						l-2.6-3.5l-2.5,3c-0.6,0.7-0.9,1.2-0.9,1.6c0,0.3,0.1,0.5,0.3,0.7c0.2,0.1,0.4,0.2,0.7,0.3c0.3,0,0.7,0,1.1,0v1.1h-7.2v-1.1
						c0.5,0,1-0.1,1.4-0.2c0.4-0.1,0.9-0.4,1.4-0.9c0.5-0.4,1.2-1.1,2-2.1l2.9-3.4l-3.9-5.2c-0.6-0.8-1-1.3-1.3-1.6
						c-0.3-0.3-0.6-0.5-0.9-0.6c-0.4-0.1-0.9-0.2-1.5-0.2v-1.1h8.9v1.1h-0.6c-0.5,0-0.8,0-1,0.1c-0.2,0.1-0.3,0.3-0.3,0.5
						c0,0.2,0.2,0.6,0.7,1.3l2.3,2.9l2.6-3c0.2-0.3,0.4-0.5,0.5-0.6c0.1-0.1,0.1-0.3,0.1-0.5c0-0.3-0.1-0.5-0.3-0.6
						s-0.6-0.2-1.1-0.2h-0.6v-1.1h6.7v1.1c-0.6,0-1.1,0.1-1.6,0.3c-0.4,0.2-0.8,0.5-1.2,0.8c-0.3,0.3-0.8,0.8-1.4,1.6l-2.9,3.3
						l4,5.2c0.6,0.8,1.1,1.4,1.5,1.8c0.4,0.4,0.8,0.7,1.2,0.9c0.4,0.2,0.9,0.3,1.6,0.3L-326.4,281.9L-326.4,281.9z"/>
					<path fill="#FFFFFF" d="M-311.2,281.9h-7.7v-1.1c0.6,0,1.1,0,1.4-0.1c0.3-0.1,0.4-0.3,0.4-0.7c0-0.2,0-0.5-0.1-0.7l-0.8-1.9
						h-5.3l-0.4,1.1c-0.2,0.6-0.3,1-0.3,1.3c0,0.5,0.2,0.8,0.6,0.9c0.4,0.1,0.8,0.2,1.3,0.2v1.1h-5.6v-1.1c0.5,0,0.8-0.1,1.1-0.3
						c0.3-0.2,0.6-0.5,0.9-1c0.3-0.5,0.6-1.1,0.9-2l4.7-12.3h1.1l5,12.7c0.4,0.9,0.6,1.5,0.8,1.8c0.2,0.3,0.4,0.6,0.7,0.7
						c0.3,0.2,0.7,0.3,1.3,0.3L-311.2,281.9L-311.2,281.9z M-318.4,276.2l-2.2-5.7l-2.1,5.7H-318.4L-318.4,276.2z"/>
					<path fill="#FFFFFF" d="M-298.9,277.1c0,0.5-0.1,1-0.3,1.6c-0.2,0.6-0.5,1.1-1,1.6c-0.4,0.5-1,0.9-1.6,1.2
						c-0.7,0.3-1.4,0.5-2.3,0.5c-0.8,0-1.7-0.2-2.5-0.6c-0.8-0.4-1.5-0.9-2.1-1.6c-0.3,0.6-0.4,1.1-0.5,1.6h-1.1v-5.5h1.1
						c0.2,0.8,0.5,1.5,0.8,2.2c0.3,0.7,0.8,1.3,1.5,1.8c0.6,0.5,1.4,0.7,2.3,0.7c0.8,0,1.4-0.2,1.9-0.7c0.5-0.4,0.7-1,0.7-1.7
						c0-0.4-0.1-0.7-0.2-1c-0.2-0.3-0.4-0.5-0.7-0.8c-0.3-0.2-0.7-0.5-1.2-0.7c-0.5-0.3-1.1-0.5-1.7-0.8c-1-0.5-1.8-0.9-2.4-1.4
						c-0.6-0.5-1.1-0.9-1.4-1.3c-0.3-0.4-0.5-0.9-0.7-1.2c-0.1-0.4-0.2-0.8-0.2-1.2c0-0.7,0.2-1.4,0.6-2.1c0.4-0.7,0.9-1.3,1.7-1.7
						c0.7-0.4,1.6-0.7,2.6-0.7c0.7,0,1.5,0.2,2.1,0.5c0.7,0.3,1.3,0.8,1.8,1.4c0.1-0.3,0.3-0.8,0.4-1.4h1.1v4.5h-1.1
						c-0.8-2.4-2.2-3.6-4.1-3.6c-0.7,0-1.3,0.2-1.7,0.6c-0.4,0.4-0.6,0.8-0.6,1.4c0,0.5,0.1,0.9,0.4,1.2c0.3,0.3,0.6,0.6,1.1,0.9
						c0.4,0.2,1.1,0.6,2.1,1c1.2,0.6,2.1,1,2.8,1.5c0.7,0.4,1.2,0.9,1.7,1.5C-299.1,275.4-298.9,276.2-298.9,277.1L-298.9,277.1z"/>
					<path fill="#FFFFFF" d="M-274,281.9h-7.7v-1.1c0.6,0,1.1,0,1.4-0.1c0.3-0.1,0.4-0.3,0.4-0.7c0-0.2,0-0.5-0.1-0.7l-0.8-1.9h-5.3
						l-0.4,1.1c-0.2,0.6-0.3,1-0.3,1.3c0,0.5,0.2,0.8,0.6,0.9c0.4,0.1,0.8,0.2,1.3,0.2v1.1h-5.6v-1.1c0.4,0,0.8-0.1,1.1-0.3
						c0.3-0.2,0.6-0.5,0.9-1c0.3-0.5,0.6-1.1,0.9-2l4.7-12.3h1.1l5,12.7c0.4,0.9,0.6,1.5,0.8,1.8c0.2,0.3,0.4,0.6,0.7,0.7
						c0.3,0.2,0.7,0.3,1.3,0.3V281.9L-274,281.9z M-281.2,276.2l-2.3-5.7l-2.1,5.7H-281.2L-281.2,276.2z"/>
					<path fill="#FFFFFF" d="M-238.4,281.9h-8.2v-1.1c0.7,0,1.2-0.1,1.6-0.2c0.3-0.1,0.5-0.3,0.6-0.6c0.1-0.3,0.2-0.6,0.2-1.1v-10.2
						l-6.2,13.3h-0.7l-6.2-13.3v9.7c0,0.5,0,0.9,0.1,1.2c0,0.3,0.1,0.5,0.3,0.7c0.1,0.2,0.4,0.3,0.7,0.4c0.3,0.1,0.8,0.1,1.3,0.1
						v1.1h-6v-1.1c0.6,0,1,0,1.3-0.1c0.3-0.1,0.5-0.2,0.7-0.4c0.1-0.2,0.2-0.4,0.3-0.7c0-0.3,0.1-0.7,0.1-1.2v-9.3
						c0-0.7,0-1.2-0.1-1.5c-0.1-0.3-0.3-0.5-0.6-0.7c-0.3-0.2-0.9-0.2-1.6-0.2v-1.1h6l5.4,11.5l5.4-11.5h5.8v1.1
						c-1,0-1.6,0.1-1.9,0.4c-0.3,0.3-0.4,0.8-0.4,1.5v10.3c0,0.4,0.1,0.8,0.1,1.1c0.1,0.3,0.3,0.5,0.7,0.6c0.3,0.1,0.9,0.2,1.6,0.2
						L-238.4,281.9L-238.4,281.9z"/>
					<g transform="translate(2.284314, 21.714286)">
						<path fill="#FFFFFF" d="M-371.4,265.9c-0.3,0-0.5,0-0.6,0.1c-0.1,0.1-0.2,0.2-0.2,0.3s0,0.3,0,0.6v2.5c0,0.5,0,0.8,0,1
							c0,0.2-0.1,0.5-0.3,0.7c-0.3,0.5-0.6,0.8-1.1,0.9c-0.5,0.2-0.9,0.3-1.3,0.3c-0.3,0-0.6,0-1-0.1c-0.3-0.1-0.6-0.2-0.9-0.4
							c-0.3-0.2-0.5-0.4-0.6-0.7c-0.1-0.2-0.1-0.3-0.2-0.5c0-0.2-0.1-0.3-0.1-0.5c0-0.1,0-0.3,0-0.6l0-2.8c0-0.3-0.1-0.5-0.2-0.6
							c-0.1-0.1-0.4-0.2-0.8-0.2v-0.5h3.4v0.5c-0.3,0-0.5,0-0.6,0.1c-0.1,0.1-0.2,0.1-0.3,0.3c0,0.1-0.1,0.3-0.1,0.5v2.8
							c0,0.3,0,0.5,0,0.8c0,0.2,0.1,0.4,0.1,0.6c0.1,0.3,0.3,0.5,0.6,0.6c0.3,0.2,0.6,0.2,0.9,0.2c0.3,0,0.7-0.1,1-0.3
							c0.3-0.2,0.5-0.4,0.6-0.7c0.1-0.2,0.2-0.4,0.2-0.7c0-0.2,0-0.5,0-0.8v-2.4c0-0.2,0-0.4,0-0.5c0-0.1-0.1-0.2-0.1-0.3
							s-0.2-0.1-0.3-0.2c-0.1,0-0.3-0.1-0.6-0.1v-0.5h2.5V265.9L-371.4,265.9z"/>
						<path fill="#FFFFFF" d="M-355.5,265.9c-0.3,0-0.6,0-0.7,0.1c-0.1,0.1-0.2,0.2-0.3,0.3c0,0.1-0.1,0.3-0.1,0.6v5.3h-0.5
							l-4.4-5.2v3.7c0,0.3,0,0.5,0.1,0.6c0,0.1,0.1,0.2,0.3,0.3c0.1,0.1,0.4,0.1,0.7,0.1v0.5h-2.5v-0.5c0.3,0,0.5,0,0.6-0.1
							c0.1-0.1,0.2-0.2,0.3-0.3c0-0.1,0-0.3,0-0.6v-3.4c0-0.3,0-0.5,0-0.6c0-0.1-0.1-0.3-0.1-0.4c-0.1-0.1-0.1-0.2-0.3-0.3
							c-0.1-0.1-0.3-0.1-0.5-0.1v-0.5h2l3.8,4.5v-3.1c0-0.3,0-0.4-0.1-0.6c0-0.1-0.1-0.2-0.3-0.3c-0.1-0.1-0.4-0.1-0.7-0.1v-0.5h2.5
							L-355.5,265.9L-355.5,265.9z"/>
						<path fill="#FFFFFF" d="M-343.6,272.1h-3.4v-0.5c0.3,0,0.5,0,0.6-0.1c0.1-0.1,0.2-0.1,0.3-0.2c0-0.1,0.1-0.3,0.1-0.5v-4.2
							c0-0.3-0.1-0.5-0.2-0.6c-0.1-0.1-0.4-0.2-0.8-0.2v-0.5h3.4v0.5c-0.3,0-0.5,0-0.6,0.1c-0.1,0.1-0.2,0.1-0.3,0.2
							c0,0.1-0.1,0.3-0.1,0.5v4.2c0,0.2,0,0.3,0.1,0.5c0,0.1,0.1,0.2,0.3,0.3c0.1,0.1,0.4,0.1,0.7,0.1V272.1L-343.6,272.1z"/>
						<path fill="#FFFFFF" d="M-327.7,265.9c-0.2,0-0.3,0-0.4,0.1c-0.1,0-0.2,0.1-0.3,0.2c-0.1,0.1-0.2,0.2-0.2,0.3
							c-0.1,0.1-0.2,0.4-0.3,0.7l-2.2,5.1h-0.5l-2.3-5.4c-0.1-0.3-0.3-0.6-0.3-0.7c-0.1-0.1-0.2-0.2-0.3-0.3
							c-0.1-0.1-0.3-0.1-0.6-0.1v-0.5h3.4v0.5c-0.3,0-0.5,0-0.7,0.1c-0.1,0-0.2,0.1-0.2,0.3c0,0.1,0,0.3,0.1,0.5l1.5,3.6l1.4-3.4
							c0.1-0.3,0.2-0.5,0.2-0.6c0-0.2-0.1-0.3-0.2-0.4c-0.1-0.1-0.4-0.1-0.7-0.1v-0.5h2.5L-327.7,265.9L-327.7,265.9z"/>
						<path fill="#FFFFFF" d="M-313.2,269.9l-0.1,2.2h-6v-0.5c0.4,0,0.7-0.1,0.8-0.2c0.1-0.1,0.2-0.3,0.2-0.6v-4.2
							c0-0.2,0-0.3-0.1-0.5c0-0.1-0.1-0.2-0.3-0.3c-0.1-0.1-0.4-0.1-0.7-0.1v-0.5h5.6l0.1,1.7h-0.5c-0.1-0.4-0.2-0.7-0.4-0.8
							c-0.1-0.2-0.3-0.3-0.5-0.3c-0.2,0-0.4-0.1-0.7-0.1h-1.3v2.4h0.7c0.2,0,0.4,0,0.5-0.1c0.1,0,0.2-0.1,0.2-0.2
							c0-0.1,0.1-0.3,0.1-0.5h0.5v2.2h-0.5c0-0.3,0-0.4-0.1-0.6c0-0.1-0.1-0.2-0.2-0.2c-0.1,0-0.3-0.1-0.5-0.1h-0.7v1.6
							c0,0.3,0,0.5,0,0.6c0,0.1,0.1,0.2,0.1,0.3c0.1,0.1,0.2,0.1,0.3,0.2c0.1,0,0.3,0,0.6,0h0.5c0.2,0,0.4,0,0.7-0.1
							c0.2-0.1,0.4-0.2,0.6-0.4c0.2-0.2,0.3-0.6,0.4-1.1H-313.2L-313.2,269.9z"/>
						<path fill="#FFFFFF" d="M-297.1,272.1h-1.8c-0.1-0.1-0.2-0.2-0.2-0.3c-0.1-0.1-0.2-0.3-0.3-0.5c-0.1-0.2-0.2-0.3-0.3-0.5
							l-0.5-0.8c-0.2-0.3-0.4-0.6-0.5-0.7c-0.1-0.1-0.2-0.2-0.4-0.2c-0.1,0-0.4,0-0.7,0h-0.3v1.8c0,0.2,0,0.3,0.1,0.4
							c0,0.1,0.1,0.2,0.3,0.3c0.1,0.1,0.4,0.1,0.6,0.1v0.5h-3.4v-0.5c0.4,0,0.7-0.1,0.8-0.2c0.1-0.1,0.2-0.3,0.2-0.6v-4.2
							c0-0.3-0.1-0.5-0.2-0.6c-0.1-0.1-0.4-0.2-0.8-0.2v-0.5l1.6,0c0.1,0,0.3,0,0.4,0c0.2,0,0.3,0,0.4,0c0.1,0,0.3,0,0.5,0
							c0.3,0,0.7,0,0.9,0.1c0.3,0,0.5,0.1,0.7,0.1c0.3,0.1,0.5,0.2,0.7,0.3c0.2,0.1,0.4,0.3,0.5,0.6c0.1,0.2,0.2,0.5,0.2,0.8
							c0,0.2,0,0.4-0.1,0.7c-0.1,0.2-0.3,0.4-0.5,0.6c-0.2,0.2-0.5,0.3-0.9,0.4c0.2,0.1,0.4,0.3,0.6,0.5c0.2,0.2,0.4,0.6,0.8,1.2
							c0.2,0.3,0.4,0.6,0.5,0.7c0.1,0.2,0.3,0.3,0.4,0.3c0.1,0.1,0.3,0.1,0.4,0.1V272.1L-297.1,272.1z M-299.9,267.2
							c0-0.5-0.2-0.9-0.5-1.1c-0.3-0.2-0.8-0.3-1.3-0.3c-0.1,0-0.1,0-0.2,0h-0.1v2.7h0.3c0.5,0,0.9-0.1,1.3-0.2
							C-300.1,268.2-299.9,267.8-299.9,267.2L-299.9,267.2z"/>
						<path fill="#FFFFFF" d="M-283.6,270.2c0,0.2-0.1,0.4-0.1,0.7c-0.1,0.2-0.2,0.5-0.4,0.7c-0.2,0.2-0.4,0.4-0.7,0.5
							c-0.3,0.1-0.6,0.2-1,0.2c-0.4,0-0.7-0.1-1.1-0.2c-0.4-0.2-0.6-0.4-0.9-0.7c-0.1,0.2-0.2,0.5-0.2,0.7h-0.5v-2.3h0.5
							c0.1,0.3,0.2,0.6,0.3,0.9c0.1,0.3,0.4,0.5,0.6,0.8c0.3,0.2,0.6,0.3,1,0.3c0.3,0,0.6-0.1,0.8-0.3c0.2-0.2,0.3-0.4,0.3-0.7
							c0-0.2,0-0.3-0.1-0.4c-0.1-0.1-0.2-0.2-0.3-0.3c-0.1-0.1-0.3-0.2-0.5-0.3c-0.2-0.1-0.4-0.2-0.7-0.3c-0.4-0.2-0.7-0.4-1-0.6
							c-0.3-0.2-0.5-0.4-0.6-0.6c-0.1-0.2-0.2-0.4-0.3-0.5c-0.1-0.2-0.1-0.3-0.1-0.5c0-0.3,0.1-0.6,0.2-0.9c0.2-0.3,0.4-0.5,0.7-0.7
							c0.3-0.2,0.7-0.3,1.1-0.3c0.3,0,0.6,0.1,0.9,0.2c0.3,0.1,0.5,0.3,0.7,0.6c0.1-0.1,0.1-0.3,0.2-0.6h0.5v1.9h-0.5
							c-0.3-1-0.9-1.5-1.7-1.5c-0.3,0-0.5,0.1-0.7,0.2c-0.2,0.2-0.3,0.4-0.3,0.6c0,0.2,0.1,0.4,0.2,0.5c0.1,0.1,0.3,0.3,0.4,0.4
							c0.2,0.1,0.5,0.3,0.9,0.4c0.5,0.2,0.9,0.4,1.2,0.6c0.3,0.2,0.5,0.4,0.7,0.6C-283.7,269.5-283.6,269.8-283.6,270.2
							L-283.6,270.2z"/>
						<path fill="#FFFFFF" d="M-271.4,272.1h-3.4v-0.5c0.3,0,0.5,0,0.6-0.1c0.1-0.1,0.2-0.1,0.3-0.2c0-0.1,0.1-0.3,0.1-0.5v-4.2
							c0-0.3-0.1-0.5-0.2-0.6c-0.1-0.1-0.4-0.2-0.8-0.2v-0.5h3.4v0.5c-0.3,0-0.5,0-0.6,0.1c-0.1,0.1-0.2,0.1-0.3,0.2
							c0,0.1-0.1,0.3-0.1,0.5v4.2c0,0.2,0,0.3,0.1,0.5c0,0.1,0.1,0.2,0.3,0.3c0.1,0.1,0.4,0.1,0.7,0.1V272.1L-271.4,272.1z"/>
						<path fill="#FFFFFF" d="M-256.2,267.3h-0.5c0-0.4-0.1-0.7-0.3-0.9c-0.1-0.2-0.3-0.3-0.5-0.4c-0.2,0-0.3-0.1-0.6-0.1h-0.9v4.9
							c0,0.2,0,0.3,0.1,0.5c0,0.1,0.1,0.2,0.3,0.3c0.1,0.1,0.4,0.1,0.6,0.1v0.5h-3.4v-0.5c0.4,0,0.7-0.1,0.8-0.2
							c0.1-0.1,0.2-0.3,0.2-0.6V266h-0.7c-0.3,0-0.5,0-0.7,0.1c-0.2,0-0.3,0.2-0.5,0.4s-0.2,0.5-0.2,0.9h-0.5v-1.9h6.6L-256.2,267.3
							L-256.2,267.3z"/>
						<path fill="#FFFFFF" d="M-240.7,265.9c-0.2,0-0.3,0.1-0.5,0.1c-0.1,0.1-0.2,0.2-0.4,0.3c-0.1,0.2-0.3,0.4-0.5,0.8l-1.4,2.2
							v1.6c0,0.2,0,0.3,0.1,0.4c0,0.1,0.1,0.2,0.3,0.3c0.1,0.1,0.4,0.1,0.7,0.1v0.5h-3.4v-0.5c0.3,0,0.5,0,0.6-0.1
							c0.1-0.1,0.2-0.1,0.3-0.2c0-0.1,0.1-0.3,0.1-0.5v-1.5l-1.7-2.8c0,0,0,0,0-0.1c0,0,0,0,0,0c-0.1-0.2-0.3-0.4-0.4-0.5
							c-0.1-0.1-0.3-0.1-0.5-0.1v-0.5h3.2v0.5c-0.2,0-0.3,0-0.4,0c-0.1,0-0.2,0-0.2,0.1c-0.1,0-0.1,0.1-0.1,0.2c0,0.1,0,0.1,0.1,0.2
							c0,0.1,0.1,0.3,0.3,0.5l1,1.8l1-1.6c0.2-0.3,0.3-0.6,0.3-0.8c0-0.2-0.1-0.3-0.2-0.4c-0.1-0.1-0.3-0.1-0.6-0.1v-0.5h2.4
							L-240.7,265.9L-240.7,265.9z"/>
					</g>
					<g transform="translate(103.936275, 1.142857)">
						<path fill="#FFFFFF" d="M-365.7,276.9c-0.4,0.6-0.8,0.8-1.4,0.8c-0.4,0-0.8-0.1-1.1-0.4c-0.4-0.2-0.9-0.8-1.5-1.7
							c0.3-0.4,0.6-0.9,0.9-1.7c0.4-0.9,0.8-1.6,1.1-1.9c0.4-0.3,0.8-0.6,1.3-0.7l0.1,0v-0.6h-4.2v0.6l0.1,0
							c0.9,0.1,1.4,0.5,1.4,1.1c0,0.3-0.1,0.7-0.3,1.2c-0.2,0.5-0.4,0.9-0.8,1.4c-0.2-0.2-2.8-3.9-3-4.1c1.7-0.9,2.6-1.8,2.6-2.8
							c0-0.6-0.3-1.2-0.9-1.6c-0.6-0.4-1.2-0.6-1.9-0.6c-0.8,0-1.4,0.3-1.9,0.8c-0.5,0.5-0.8,1.1-0.8,1.8c0,0.8,0.4,1.7,1.1,2.7
							c-1.1,0.8-2,1.4-2.4,2c-0.4,0.5-0.7,1.2-0.7,2c0,0.7,0.2,1.3,0.5,1.9c0.4,0.5,0.8,1,1.4,1.2c0.6,0.3,1.1,0.4,1.7,0.4
							c1.2,0,2.4-0.6,3.4-1.8c0.9,1.2,2,1.8,3.2,1.8c0.6,0,1.1-0.2,1.5-0.5c0.4-0.3,0.7-0.8,0.9-1.3l0-0.1L-365.7,276.9
							L-365.7,276.9z M-374.5,268.1c0-0.4,0.1-0.8,0.4-1c0.3-0.3,0.6-0.4,1-0.4c0.4,0,0.8,0.1,1,0.4c0.3,0.3,0.4,0.7,0.4,1.1
							c0,0.8-0.6,1.5-1.7,2.2C-374.1,269.4-374.5,268.6-374.5,268.1L-374.5,268.1z M-375.8,273.1c0.3-0.5,0.8-0.9,1.4-1.3
							c0.9,1.2,2,2.8,3.2,4.6c-0.7,0.8-1.4,1.2-2.2,1.2c-0.7,0-1.4-0.3-2-1c-0.6-0.7-0.9-1.4-0.9-2.1
							C-376.3,274.1-376.1,273.6-375.8,273.1L-375.8,273.1z"/>
						<path fill="#FFFFFF" d="M-365.9,276.8c-0.4,0.5-0.7,0.7-1.2,0.7c-0.4,0-0.7-0.1-1-0.3c-0.3-0.2-0.8-0.8-1.4-1.7l0,0.2
							c0.3-0.4,0.6-1,0.9-1.7c0.4-0.9,0.7-1.5,1.1-1.8c0.3-0.3,0.7-0.5,1.2-0.7l0.1,0l0.1,0v-0.2v-0.6v-0.2h-0.2h-4.2h-0.2v0.2v0.6
							v0.2l0.2,0l0.1,0c1,0.1,1.2,0.6,1.2,0.9c0,0.2-0.1,0.5-0.3,1.1c-0.2,0.4-0.4,0.9-0.7,1.3l0.3,0l-0.1-0.1l-2.9-4l-0.1,0.3
							c1.8-0.9,2.7-1.9,2.7-3c0-0.7-0.3-1.3-0.9-1.7c-0.6-0.4-1.3-0.6-2-0.6c-0.8,0-1.5,0.3-2.1,0.8c-0.5,0.6-0.8,1.2-0.8,1.9
							c0,0.8,0.4,1.8,1.1,2.8l0.1-0.3c-1.2,0.8-2,1.5-2.4,2c-0.5,0.6-0.7,1.3-0.7,2.1c0,0.7,0.2,1.4,0.6,2c0.4,0.6,0.9,1,1.4,1.3
							c0.6,0.3,1.2,0.5,1.8,0.5c1.3,0,2.5-0.6,3.6-1.9l-0.3,0c1,1.2,2.1,1.9,3.3,1.9c0.6,0,1.2-0.2,1.7-0.5c0.5-0.4,0.8-0.8,0.9-1.4
							c0,0,0-0.1,0-0.1l0.1-0.3h-0.3h-0.6L-365.9,276.8L-365.9,276.8L-365.9,276.8z M-365.3,276.8l0,0.1c-0.1,0.5-0.4,0.9-0.8,1.2
							c-0.4,0.3-0.9,0.4-1.4,0.4c-1.1,0-2.1-0.6-3-1.7l-0.1-0.2l-0.2,0.2c-1.1,1.1-2.2,1.7-3.3,1.7c-0.6,0-1.1-0.1-1.6-0.4
							c-0.5-0.3-1-0.7-1.3-1.2c-0.3-0.5-0.5-1.1-0.5-1.7c0-0.8,0.2-1.4,0.6-1.9c0.4-0.5,1.2-1.1,2.3-1.9l0.2-0.1l-0.1-0.2
							c-0.7-1-1-1.8-1-2.6c0-0.6,0.2-1.2,0.7-1.6c0.5-0.5,1.1-0.7,1.8-0.7c0.6,0,1.2,0.2,1.7,0.5c0.5,0.4,0.8,0.8,0.8,1.4
							c0,0.9-0.8,1.8-2.5,2.6l-0.2,0.1c0,0,0.1,0.2,0.1,0.2l2.9,4l0.1,0.1l0.2,0.2l0.2-0.2c0.3-0.5,0.6-1,0.8-1.4
							c0.2-0.5,0.3-1,0.3-1.3c0-0.8-0.5-1.2-1.5-1.3l-0.1,0l0.2,0.2v-0.6l-0.2,0.2h4.2l-0.2-0.2v0.6l0.1-0.2l-0.1,0
							c-0.5,0.1-1,0.4-1.4,0.7c-0.4,0.4-0.8,1-1.2,2c-0.3,0.7-0.6,1.3-0.9,1.7l-0.1,0.1l0.1,0.1c0.7,0.9,1.2,1.5,1.5,1.8
							c0.4,0.3,0.8,0.4,1.3,0.4c0.6,0,1.1-0.3,1.5-0.9l-0.2,0.1h0.6L-365.3,276.8L-365.3,276.8z"/>
						<path fill="#FFFFFF" d="M-374.3,268.1c0-0.4,0.1-0.7,0.3-0.9c0.2-0.2,0.5-0.3,0.8-0.3c0.4,0,0.6,0.1,0.9,0.4
							c0.2,0.2,0.3,0.6,0.3,1c0,0.7-0.5,1.4-1.6,2l0.3,0.1C-374.1,269.1-374.3,268.4-374.3,268.1L-374.3,268.1z M-373.3,270.6
							c1.2-0.7,1.8-1.5,1.8-2.4c0-0.5-0.2-1-0.4-1.3c-0.3-0.3-0.7-0.5-1.2-0.5c-0.5,0-0.9,0.2-1.1,0.5c-0.3,0.3-0.4,0.7-0.4,1.2
							c0,0.6,0.4,1.4,1.1,2.4l0.1,0.2L-373.3,270.6L-373.3,270.6z"/>
						<path fill="#FFFFFF" d="M-375.6,273.2c0.3-0.4,0.7-0.9,1.3-1.2l-0.3-0.1c0.9,1.2,2,2.7,3.2,4.6l0-0.3
							c-0.7,0.7-1.4,1.1-2.1,1.1c-0.7,0-1.3-0.3-1.8-0.9c-0.6-0.6-0.8-1.3-0.8-2C-376.1,274.2-376,273.7-375.6,273.2L-375.6,273.2z
							 M-376.5,274.6c0,0.8,0.3,1.5,0.9,2.2c0.6,0.7,1.4,1,2.2,1c0.9,0,1.7-0.4,2.4-1.3l0.1-0.1l-0.1-0.1c-1.2-1.9-2.3-3.5-3.2-4.7
							l-0.1-0.2l-0.2,0.1c-0.6,0.4-1.1,0.9-1.5,1.3C-376.3,273.5-376.5,274.1-376.5,274.6L-376.5,274.6z"/>
					</g>
				</g>
			</g>
		</g>
	</g>
</g>
</svg>
